<?xml version="1.0" standalone="no"?>
<!DOCTYPE svg PUBLIC "-//W3C//DTD SVG 20010904//EN"
 "http://www.w3.org/TR/2001/REC-SVG-20010904/DTD/svg10.dtd">
<svg version="1.0" xmlns="http://www.w3.org/2000/svg"
 width="435.000000pt" height="435.000000pt" viewBox="0 0 435.000000 435.000000"
 preserveAspectRatio="xMidYMid meet">
<metadata>
Created by potrace 1.14, written by Peter Selinger 2001-2017
</metadata>
<g transform="translate(0.000000,435.000000) scale(0.100000,-0.100000)"
fill="#000000" stroke="none">
<path d="M860 4125 l0 -75 75 0 75 0 0 -75 0 -75 -150 0 -150 0 0 -75 0 -75
-75 0 -75 0 0 -75 0 -75 75 0 75 0 0 -75 0 -75 -75 0 -75 0 0 -225 0 -225 75
0 75 0 0 -450 0 -450 75 0 75 0 0 -150 0 -150 75 0 75 0 0 -75 0 -75 75 0 75
0 0 -75 0 -75 75 0 75 0 0 -75 0 -75 -75 0 -75 0 0 -225 0 -225 -75 0 -75 0 0
-450 0 -450 150 0 150 0 0 225 0 225 525 0 525 0 0 -225 0 -225 225 0 225 0 0
75 0 75 150 0 150 0 0 300 0 300 75 0 75 0 0 -300 0 -300 150 0 150 0 0 -75 0
-75 75 0 75 0 0 375 0 375 -75 0 -75 0 0 150 0 150 -75 0 -75 0 0 150 0 150
-75 0 -75 0 0 75 0 75 -75 0 -75 0 0 75 0 75 -150 0 -150 0 0 75 0 75 -75 0
-75 0 0 75 0 75 75 0 75 0 0 225 0 225 75 0 75 0 0 375 0 375 -75 0 -75 0 0
225 0 225 -75 0 -75 0 0 75 0 75 -75 0 -75 0 0 75 0 75 -150 0 -150 0 0 75 0
75 -150 0 -150 0 0 75 0 75 -225 0 -225 0 0 -75 0 -75 -75 0 -75 0 0 75 0 75
-225 0 -225 0 0 -75z m1050 -750 l0 -75 75 0 75 0 0 -75 0 -75 75 0 75 0 0
-150 0 -150 75 0 75 0 0 -150 0 -150 75 0 75 0 0 150 0 150 75 0 75 0 0 -75 0
-75 75 0 75 0 0 -150 0 -150 -75 0 -75 0 0 -75 0 -75 -75 0 -75 0 0 -300 0
-300 75 0 75 0 0 -75 0 -75 -75 0 -75 0 0 -75 0 -75 -75 0 -75 0 0 -75 0 -75
-450 0 -450 0 0 75 0 75 225 0 225 0 0 75 0 75 75 0 75 0 0 150 0 150 -75 0
-75 0 0 -75 0 -75 -375 0 -375 0 0 75 0 75 -75 0 -75 0 0 150 0 150 -75 0 -75
0 0 375 0 375 75 0 75 0 0 -75 0 -75 75 0 75 0 0 150 0 150 -150 0 -150 0 0
150 0 150 75 0 75 0 0 75 0 75 450 0 450 0 0 -75z m1050 -2100 l0 -75 75 0 75
0 0 -225 0 -225 -75 0 -75 0 0 225 0 225 -75 0 -75 0 0 75 0 75 75 0 75 0 0
-75z m-1050 -300 l0 -75 -75 0 -75 0 0 -75 0 -75 -75 0 -75 0 0 75 0 75 -75 0
-75 0 0 75 0 75 225 0 225 0 0 -75z m1650 -525 l0 -150 -75 0 -75 0 0 150 0
150 75 0 75 0 0 -150z"/>
<path d="M1460 3075 l0 -75 225 0 225 0 0 75 0 75 -225 0 -225 0 0 -75z"/>
<path d="M1760 2775 l0 -75 75 0 75 0 0 75 0 75 -75 0 -75 0 0 -75z"/>
<path d="M1760 2175 l0 -75 75 0 75 0 0 75 0 75 -75 0 -75 0 0 -75z"/>
<path d="M1310 2025 l0 -75 75 0 75 0 0 75 0 75 -75 0 -75 0 0 -75z"/>
<path d="M1460 150 l0 -150 75 0 75 0 0 75 0 75 75 0 75 0 0 -75 0 -75 75 0
75 0 0 75 0 75 75 0 75 0 0 -75 0 -75 75 0 75 0 0 150 0 150 -375 0 -375 0 0
-150z"/>
</g>
</svg>
